<svg width="44" height="27" viewBox="0 0 44 27" fill="none" xmlns="http://www.w3.org/2000/svg">
<path d="M19.8 27C16.1333 27 13.0167 25.6875 10.45 23.0625C7.88333 20.4375 6.6 17.25 6.6 13.5C6.6 13.0875 6.61833 12.675 6.655 12.2625C6.69167 11.85 6.74667 11.4375 6.82 11.025C6.63667 11.1 6.41667 11.1562 6.16 11.1937C5.90333 11.2312 5.68333 11.25 5.5 11.25C3.96 11.25 2.65833 10.7062 1.595 9.61875C0.531667 8.53125 0 7.2 0 5.625C0 4.05 0.504167 2.71875 1.5125 1.63125C2.52083 0.54375 3.795 0 5.335 0C6.545 0 7.63583 0.346875 8.6075 1.04062C9.57917 1.73437 10.2667 2.625 10.67 3.7125C11.88 2.5875 13.2642 1.6875 14.8225 1.0125C16.3808 0.3375 18.04 0 19.8 0H44V9H33V13.5C33 17.25 31.7167 20.4375 29.15 23.0625C26.5833 25.6875 23.4667 27 19.8 27ZM5.5 7.875C6.12333 7.875 6.64583 7.65937 7.0675 7.22812C7.48917 6.79687 7.7 6.2625 7.7 5.625C7.7 4.9875 7.48917 4.45312 7.0675 4.02187C6.64583 3.59062 6.12333 3.375 5.5 3.375C4.87667 3.375 4.35417 3.59062 3.9325 4.02187C3.51083 4.45312 3.3 4.9875 3.3 5.625C3.3 6.2625 3.51083 6.79687 3.9325 7.22812C4.35417 7.65937 4.87667 7.875 5.5 7.875ZM19.8 21.375C21.9267 21.375 23.7417 20.6063 25.245 19.0688C26.7483 17.5313 27.5 15.675 27.5 13.5C27.5 11.325 26.7483 9.46875 25.245 7.93125C23.7417 6.39375 21.9267 5.625 19.8 5.625C17.6733 5.625 15.8583 6.39375 14.355 7.93125C12.8517 9.46875 12.1 11.325 12.1 13.5C12.1 15.675 12.8517 17.5313 14.355 19.0688C15.8583 20.6063 17.6733 21.375 19.8 21.375ZM19.8 18C21.01 18 22.0458 17.5594 22.9075 16.6781C23.7692 15.7969 24.2 14.7375 24.2 13.5C24.2 12.2625 23.7692 11.2031 22.9075 10.3219C22.0458 9.44062 21.01 9 19.8 9C18.59 9 17.5542 9.44062 16.6925 10.3219C15.8308 11.2031 15.4 12.2625 15.4 13.5C15.4 14.7375 15.8308 15.7969 16.6925 16.6781C17.5542 17.5594 18.59 18 19.8 18Z" fill="#66C557"/>
</svg>
