<svg width="31" height="28" viewBox="0 0 31 28" fill="none" xmlns="http://www.w3.org/2000/svg">
<path d="M3.1 28C2.2475 28 1.51771 27.6954 0.910625 27.0861C0.303542 26.4769 0 25.7444 0 24.8889V0L2.59625 2.60556L5.15375 0L7.75 2.60556L10.3462 0L12.9037 2.60556L15.5 0L18.0962 2.60556L20.6537 0L23.25 2.60556L25.8463 0L28.4038 2.60556L31 0V24.8889C31 25.7444 30.6965 26.4769 30.0894 27.0861C29.4823 27.6954 28.7525 28 27.9 28H3.1ZM3.1 24.8889H13.95V15.5556H3.1V24.8889ZM17.05 24.8889H27.9V21.7778H17.05V24.8889ZM17.05 18.6667H27.9V15.5556H17.05V18.6667ZM3.1 12.4444H27.9V7.77778H3.1V12.4444Z" fill="url(#paint0_linear_322_21)" fill-opacity="0.51"/>
<defs>
<linearGradient id="paint0_linear_322_21" x1="15.5" y1="0" x2="15.5" y2="28" gradientUnits="userSpaceOnUse">
<stop stop-color="#C31432"/>
<stop offset="1" stop-color="#240B36"/>
</linearGradient>
</defs>
</svg>
