<svg width="35" height="35" viewBox="0 0 35 35" fill="none" xmlns="http://www.w3.org/2000/svg">
<path d="M12.1638 29.3815L12.1527 29.2924L12.069 29.2601C11.6999 29.1174 11.3525 28.9464 11.0267 28.747C10.6965 28.545 10.3734 28.3286 10.0574 28.0976L9.98882 28.0475L9.91055 28.0806L4.85235 30.2165L0.195838 22.1332L4.57467 18.8006L4.64473 18.7473L4.63234 18.6601C4.60422 18.4624 4.5903 18.2726 4.5903 18.0906V16.9094C4.5903 16.7274 4.60423 16.5376 4.63234 16.3399L4.64473 16.2527L4.57467 16.1994L0.195838 12.8668L4.85235 4.78351L9.91055 6.91944L9.98882 6.95249L10.0574 6.90235C10.3725 6.67206 10.702 6.45607 11.046 6.2544C11.3889 6.05339 11.7312 5.88144 12.0729 5.73836L12.153 5.70478L12.1638 5.61851L12.8439 0.15H22.1561L22.8362 5.61851L22.8473 5.70756L22.931 5.73991C23.3001 5.8826 23.6475 6.05365 23.9733 6.25296C24.3035 6.45496 24.6266 6.67142 24.9426 6.90235L25.0112 6.95249L25.0894 6.91944L30.1477 4.78351L34.8042 12.8668L30.4253 16.1994L30.3553 16.2527L30.3677 16.3399C30.3958 16.5376 30.4097 16.7274 30.4097 16.9094V18.0906C30.4097 18.2648 30.3831 18.4478 30.3284 18.6402L30.3004 18.7386L30.3818 18.8006L34.7606 22.1332L30.1043 30.2161L25.0899 28.0807L25.0114 28.0473L24.9426 28.0976C24.6275 28.3279 24.298 28.5439 23.954 28.7456C23.6111 28.9466 23.2688 29.1186 22.9271 29.2616L22.847 29.2952L22.8362 29.3815L22.1561 34.85H12.8439L12.1638 29.3815ZM15.6098 31.5182L15.6259 31.65H15.7587H19.1978H19.3293L19.3465 31.5195L19.9428 26.9818C20.8181 26.7459 21.6328 26.4066 22.3863 25.9637C23.138 25.5218 23.8281 24.9907 24.4565 24.3707L28.6737 26.126L28.796 26.1769L28.8616 26.0618L30.5594 23.0868L30.6246 22.9726L30.5198 22.8931L26.8625 20.115C26.9924 19.7273 27.0844 19.3213 27.1388 18.8972C27.1977 18.4387 27.2271 17.9729 27.2271 17.5C27.2271 17.0271 27.1977 16.5613 27.1388 16.1028C27.0844 15.6787 26.9924 15.2727 26.8625 14.885L30.5198 12.1069L30.6246 12.0274L30.5594 11.9132L28.8616 8.93815L28.7954 8.82212L28.6725 8.87452L24.458 10.6714C23.8295 10.0239 23.1389 9.47872 22.3863 9.03631C21.6331 8.59354 20.8187 8.25434 19.9438 8.01847L19.3902 3.48183L19.3741 3.35H19.2413H15.8022H15.6707L15.6535 3.48046L15.0572 8.0182C14.1819 8.25409 13.3672 8.59337 12.6137 9.03631C11.862 9.47818 11.1719 10.0093 10.5435 10.6293L6.3263 8.87402L6.20402 8.82312L6.13838 8.93815L4.44062 11.9132L4.37493 12.0283L4.48106 12.1076L8.13891 14.8434C8.00864 15.2551 7.91602 15.6675 7.86125 16.0803C7.80224 16.5251 7.77289 16.9984 7.77289 17.5C7.77289 17.9729 7.80229 18.4316 7.86125 18.876C7.91606 19.289 8.00876 19.7016 8.13916 20.1137L4.48016 22.8931L4.37543 22.9726L4.44062 23.0868L6.13838 26.0618L6.2046 26.1779L6.32749 26.1255L10.542 24.3286C11.1705 24.9761 11.8611 25.5213 12.6137 25.9637C13.3669 26.4065 14.1813 26.7457 15.0562 26.9815L15.6098 31.5182ZM21.7904 21.7254C20.6286 22.8931 19.2303 23.475 17.5871 23.475C15.9141 23.475 14.5091 22.8926 13.3626 21.7261C12.215 20.5586 11.6425 19.1527 11.6425 17.5C11.6425 15.8473 12.215 14.4414 13.3626 13.2739C14.5091 12.1074 15.9141 11.525 17.5871 11.525C19.2303 11.525 20.6286 12.1069 21.7904 13.2746C22.9523 14.4422 23.5316 15.8479 23.5316 17.5C23.5316 19.1521 22.9523 20.5578 21.7904 21.7254Z" fill="#ADB5BD" stroke="#0068B3" stroke-width="0.3"/>
</svg>
