<svg width="69" height="69" viewBox="0 0 69 69" fill="none" xmlns="http://www.w3.org/2000/svg">
<g clip-path="url(#clip0_322_24)">
<path d="M69 34.5C69 15.4462 53.5538 0 34.5 0C15.4462 0 0 15.4462 0 34.5C0 53.5538 15.4462 69 34.5 69C53.5538 69 69 53.5538 69 34.5Z" fill="black"/>
<path d="M65 34.5C65 17.6553 51.3447 4 34.5 4C17.6553 4 4 17.6553 4 34.5C4 51.3447 17.6553 65 34.5 65C51.3447 65 65 51.3447 65 34.5Z" fill="white"/>
<path d="M59 35C59 21.1929 47.8071 10 34 10C20.1929 10 9 21.1929 9 35C9 48.8071 20.1929 60 34 60C47.8071 60 59 48.8071 59 35Z" fill="black"/>
<path d="M25.2102 35.932V35.2502L30.6989 32.4547V33.5457L26.4886 35.5741L26.5227 35.5059V35.6763L26.4886 35.6082L30.6989 37.6366V38.7275L25.2102 35.932ZM35.9158 29.8638L33.1033 40.3127H32.1829L34.9954 29.8638H35.9158ZM42.8864 35.932L37.3977 38.7275V37.6366L41.608 35.6082L41.5739 35.6763V35.5059L41.608 35.5741L37.3977 33.5457V32.4547L42.8864 35.2502V35.932Z" fill="white"/>
</g>
<defs>
<clipPath id="clip0_322_24">
<rect width="69" height="69" fill="white"/>
</clipPath>
</defs>
</svg>
