<svg width="36" height="36" viewBox="0 0 36 36" fill="none" xmlns="http://www.w3.org/2000/svg">
<path d="M18.004 8.77005C12.8962 8.77005 8.77613 12.891 8.77613 18C8.77613 23.109 12.8962 27.2299 18.004 27.2299C23.1119 27.2299 27.2319 23.109 27.2319 18C27.2319 12.891 23.1119 8.77005 18.004 8.77005ZM18.004 24.0007C14.7032 24.0007 12.0047 21.3096 12.0047 18C12.0047 14.6904 14.6951 11.9993 18.004 11.9993C21.3129 11.9993 24.0033 14.6904 24.0033 18C24.0033 21.3096 21.3049 24.0007 18.004 24.0007ZM29.7617 8.3925C29.7617 9.58942 28.798 10.5454 27.6094 10.5454C26.4127 10.5454 25.457 9.58139 25.457 8.3925C25.457 7.20361 26.4207 6.23965 27.6094 6.23965C28.798 6.23965 29.7617 7.20361 29.7617 8.3925ZM35.8735 10.5775C35.737 7.69363 35.0784 5.13913 32.9662 3.03447C30.862 0.929822 28.3081 0.271115 25.4249 0.12652C22.4533 -0.0421734 13.5467 -0.0421734 10.5751 0.12652C7.69994 0.263082 5.14601 0.921789 3.0338 3.02644C0.921584 5.13109 0.271054 7.6856 0.126492 10.5695C-0.042164 13.5417 -0.042164 22.4503 0.126492 25.4225C0.263023 28.3064 0.921584 30.8609 3.0338 32.9655C5.14601 35.0702 7.69191 35.7289 10.5751 35.8735C13.5467 36.0422 22.4533 36.0422 25.4249 35.8735C28.3081 35.7369 30.862 35.0782 32.9662 32.9655C35.0704 30.8609 35.7289 28.3064 35.8735 25.4225C36.0422 22.4503 36.0422 13.5497 35.8735 10.5775ZM32.0346 28.6116C31.4081 30.1861 30.1954 31.3991 28.6133 32.0337C26.2441 32.9736 20.6222 32.7567 18.004 32.7567C15.3858 32.7567 9.75594 32.9655 7.39476 32.0337C5.82064 31.4071 4.60792 30.1941 3.97345 28.6116C3.0338 26.2419 3.25064 20.6188 3.25064 18C3.25064 15.3812 3.04183 9.75008 3.97345 7.38837C4.59989 5.8139 5.8126 4.60091 7.39476 3.96631C9.76397 3.02644 15.3858 3.24333 18.004 3.24333C20.6222 3.24333 26.2521 3.03447 28.6133 3.96631C30.1874 4.59288 31.4001 5.80587 32.0346 7.38837C32.9742 9.75812 32.7574 15.3812 32.7574 18C32.7574 20.6188 32.9742 26.2499 32.0346 28.6116Z" fill="#3B3938"/>
</svg>
