<svg width="29" height="32" viewBox="0 0 29 32" fill="none" xmlns="http://www.w3.org/2000/svg">
<path d="M29 13.1227C26.1493 13.1293 23.3686 12.2709 21.0505 10.669V21.8418C21.0497 23.9111 20.3946 25.9309 19.1728 27.631C17.951 29.3312 16.2206 30.6307 14.2132 31.3558C12.2058 32.0808 10.0169 32.1969 7.93929 31.6885C5.86168 31.1801 3.99434 30.0714 2.58698 28.5107C1.17962 26.95 0.299307 25.0116 0.0637617 22.9548C-0.171784 20.898 0.248662 18.8208 1.26888 17.001C2.2891 15.1811 3.86046 13.7053 5.77285 12.771C7.68524 11.8366 9.8475 11.4882 11.9705 11.7724V17.3919C10.999 17.0969 9.95581 17.1058 8.98986 17.4173C8.02391 17.7288 7.18461 18.3271 6.59184 19.1266C5.99906 19.9262 5.68311 20.8861 5.68911 21.8694C5.69511 22.8526 6.02275 23.8089 6.62524 24.6016C7.22773 25.3944 8.07426 25.983 9.04395 26.2836C10.0136 26.5841 11.0569 26.5811 12.0247 26.2751C12.9925 25.969 13.8354 25.3755 14.4331 24.5793C15.0307 23.7832 15.3525 22.825 15.3525 21.8418V0H21.0505C21.0466 0.46458 21.0869 0.928527 21.171 1.38598C21.369 2.40716 21.7807 3.37861 22.3809 4.24091C22.9811 5.10321 23.7572 5.83822 24.6617 6.401C25.9485 7.22251 27.4573 7.66038 29 7.66006V13.1227Z" fill="#3B3938"/>
</svg>
