<svg width="41" height="29" viewBox="0 0 41 29" fill="none" xmlns="http://www.w3.org/2000/svg">
<path d="M40.1433 4.53752C39.6717 2.75145 38.2824 1.3448 36.5184 0.867432C33.3211 0 20.5 0 20.5 0C20.5 0 7.67901 0 4.48157 0.867432C2.71757 1.34488 1.32827 2.75145 0.856735 4.53752C0 7.77487 0 14.5293 0 14.5293C0 14.5293 0 21.2837 0.856735 24.5211C1.32827 26.3072 2.71757 27.6552 4.48157 28.1326C7.67901 29 20.5 29 20.5 29C20.5 29 33.321 29 36.5184 28.1326C38.2824 27.6552 39.6717 26.3072 40.1433 24.5211C41 21.2837 41 14.5293 41 14.5293C41 14.5293 41 7.77487 40.1433 4.53752ZM16.3068 20.6618V8.39678L27.0227 14.5295L16.3068 20.6618Z" fill="#3B3938"/>
</svg>
